<svg id="Layer_1" data-name="Layer 1" xmlns="http://www.w3.org/2000/svg" viewBox="0 0 1264.84 636.24"><defs><style>.cls-1,.cls-5{fill:#0a266a;}.cls-1{stroke:#0a0000;}.cls-1,.cls-2,.cls-3,.cls-4,.cls-5,.cls-7,.cls-8,.cls-9{stroke-miterlimit:10;stroke-width:5px;}.cls-2{fill:#bfbfbf;}.cls-2,.cls-3,.cls-4,.cls-5{stroke:#000;}.cls-3{fill:#8cd9f7;}.cls-4,.cls-6{fill:#fff;}.cls-7,.cls-8,.cls-9{fill:none;}.cls-7{stroke:#bfbfbf;}.cls-8{stroke:#00266a;}.cls-9{stroke:#009bf7;}</style></defs><title>JUNIORTIMEXPLENATION</title><path d="M1111.69,10.28c-2.39.74-4.29,1.81-4.19,2.35.32,1.63,9.17.91,32.83-2.49l20.79-3L1156.06,16c-5.19,8.87-13.85,34.83-12.07,36,.48.33,2.34-1.72,4-4.57s3.51-5.17,4.19-5.3,2.79-4.47,4.76-9.62a145.56,145.56,0,0,1,9.82-19.16c8.07-12.93,7.14-14.86-5.72-12.26-5.42,1-17.64,3.24-27.45,4.83S1113.92,9.43,1111.69,10.28Z" transform="translate(-5.75 -0.11)"/><path d="M1143.91,15.64c-11.23,6.64-23.14,15.67-27.53,20.58a135.38,135.38,0,0,1-10.18,10c-5.07,4.34-15.12,17.93-24.56,33.22-1.18,1.91-2.47,4-2.91,4.63-1.89,2.61-11.25,19-14.09,24.76-3.38,6.55-10.87,30.6-9.9,31.26.33.22,2.5-.19,4.72-1,3.15-1.17,4.52-2.83,5.86-7.59,3.79-13.23,6.86-21.4,9.63-26,1.73-2.72,2.94-5.2,2.84-5.74s.7-2.24,1.93-3.88c4-5.68,14.47-25,15-27.59a3.4,3.4,0,0,1,2.27-2.83c1-.18,2.94-2.24,4.48-4.51s7.08-8.52,12.67-13.8,11.11-11,12.34-12.62c2.6-3.31,6.85-6.79,16.49-13.69,4-2.73,7.58-5.95,8.32-7.22C1152.91,10.54,1151.72,10.91,1143.91,15.64Z" transform="translate(-5.75 -0.11)"/><rect class="cls-1" x="1052.36" y="349.64" width="209.97" height="209.97"/><rect class="cls-2" x="632.42" y="349.64" width="209.97" height="209.97"/><rect class="cls-3" x="1052.36" y="139.67" width="209.97" height="209.97"/><rect class="cls-2" x="632.42" y="139.67" width="209.97" height="209.97"/><rect class="cls-4" x="2.5" y="139.67" width="209.97" height="209.97"/><rect class="cls-4" x="422.45" y="139.67" width="209.97" height="209.97"/><rect class="cls-4" x="212.47" y="139.67" width="209.97" height="209.97"/><rect class="cls-3" x="842.39" y="139.67" width="209.97" height="209.97"/><rect class="cls-5" x="842.39" y="349.64" width="209.97" height="209.97"/><path d="M81,283.85V258.52a8,8,0,1,1,16,0V284a7.39,7.39,0,0,0,2.38,5.52,8.07,8.07,0,0,0,5.81,2.29h16.19a8,8,0,0,0,5.76-2.34,7.54,7.54,0,0,0,2.43-5.66V189.5a7.83,7.83,0,0,1,2.28-5.67,7.45,7.45,0,0,1,5.52-2.33,7.75,7.75,0,0,1,5.72,2.57,8.15,8.15,0,0,1,2.47,5.81v94A22.87,22.87,0,0,1,138.18,301a23.62,23.62,0,0,1-16.85,7H105.14A24.29,24.29,0,0,1,81,283.85Z" transform="translate(-5.75 -0.11)"/><path d="M282.84,284V189.69a7.94,7.94,0,0,1,2.38-5.76,7.76,7.76,0,0,1,11.23-.05,7.68,7.68,0,0,1,2.38,5.62V284a7.44,7.44,0,0,0,2.38,5.47,7.76,7.76,0,0,0,5.62,2.34h32.75a7.79,7.79,0,0,0,5.67-2.29,7.45,7.45,0,0,0,2.33-5.52V189.69a8,8,0,0,1,2.33-5.81,7.93,7.93,0,0,1,11.33,0,8,8,0,0,1,2.34,5.81v94.16a23.34,23.34,0,0,1-7.1,17,23,23,0,0,1-16.9,7.14H306.83a24,24,0,0,1-24-24Z" transform="translate(-5.75 -0.11)"/><path d="M573.84,189.69V308H552.39l-43.1-98.25V300a8,8,0,1,1-16,0V181.5h21.13l43.23,98.06V189.69a8.3,8.3,0,0,1,8.19-8.19,7.61,7.61,0,0,1,5.66,2.38A8,8,0,0,1,573.84,189.69Z" transform="translate(-5.75 -0.11)"/><path class="cls-6" d="M710.78,181.5h64.75a7.73,7.73,0,0,1,5.57,2.38,7.64,7.64,0,0,1,2.42,5.62,7.94,7.94,0,0,1-2.38,5.76,7.58,7.58,0,0,1-5.61,2.42H751.34V292h24.19a8,8,0,0,1,8,8,7.61,7.61,0,0,1-2.38,5.67,7.72,7.72,0,0,1-5.61,2.33H710.78a8,8,0,1,1,0-16h24.57V197.68H710.78a7.61,7.61,0,0,1-5.66-2.38,7.72,7.72,0,0,1-2.34-5.61,8,8,0,0,1,2.34-5.81A7.61,7.61,0,0,1,710.78,181.5Z" transform="translate(-5.75 -0.11)"/><path class="cls-6" d="M993.5,245.19V279q0,10.77-10.14,19.9T962.46,308H943.7q-11,0-21-9.28t-10-19.76v-33.8q0-10.47,9.76-19.75t21.18-9.28h18.76q10.75-.19,20.9,8.94T993.5,245.19Zm-64.56.67v32.37a8.52,8.52,0,0,0,3.14,6.95l6,5.14A8.36,8.36,0,0,0,943.7,292h18.57a11,11,0,0,0,7.42-3l4.86-4.29a7.6,7.6,0,0,0,3-6.38V246.05q0-4.76-3-7l-5.62-4.48a10.07,10.07,0,0,0-6.66-2.38H945.7q-5.43,0-8.38,2.57l-5.43,4.67A8.05,8.05,0,0,0,928.94,245.86Z" transform="translate(-5.75 -0.11)"/><path class="cls-6" d="M1122.83,300V181.5h56.55a23,23,0,0,1,16.9,7.14,23.33,23.33,0,0,1,7.09,17v9.14a23.39,23.39,0,0,1-7,17.09,23,23,0,0,1-16.95,7.1h-10.19l32.66,56.17a9.33,9.33,0,0,1,1.52,4.95,7.39,7.39,0,0,1-2.48,5.57,8,8,0,0,1-5.63,2.33,7.81,7.81,0,0,1-7.24-4.26L1150.57,239H1139v61a7.55,7.55,0,0,1-2.43,5.67,8,8,0,0,1-5.76,2.33,8,8,0,0,1-8-8Zm16-77h40.56a8,8,0,0,0,8-8v-9.33a8,8,0,0,0-8-8h-40.56Z" transform="translate(-5.75 -0.11)"/><path class="cls-6" d="M702.78,413.18V391.57h80.74v21.8a7.61,7.61,0,0,1-2.38,5.66,7.73,7.73,0,0,1-5.61,2.34,8,8,0,0,1-5.77-2.38,7.64,7.64,0,0,1-2.42-5.62v-5.81H751.15V509.91a7.64,7.64,0,0,1-2.38,5.67,7.79,7.79,0,0,1-5.62,2.33,8,8,0,0,1-5.8-2.33,7.64,7.64,0,0,1-2.38-5.67V407.56H718.78v5.62a8,8,0,1,1-16,0Z" transform="translate(-5.75 -0.11)"/><path class="cls-6" d="M977.52,521.43H928.78a8,8,0,0,1-8-8,7.79,7.79,0,0,1,2.33-5.62,7.63,7.63,0,0,1,5.67-2.38h16.37v-59.7H929a7.63,7.63,0,0,1-5.67-2.38,7.79,7.79,0,0,1-2.33-5.62A8.06,8.06,0,0,1,923.3,432a7.56,7.56,0,0,1,5.67-2.42h24.37A7.57,7.57,0,0,1,959,432a8.06,8.06,0,0,1,2.33,5.76v67.7h16a8.06,8.06,0,0,1,5.76,2.33,7.87,7.87,0,0,1,0,11.33A7.75,7.75,0,0,1,977.52,521.43ZM945,388h8.38a8,8,0,0,1,8,8v6.86a8.06,8.06,0,0,1-2.33,5.76,7.57,7.57,0,0,1-5.67,2.42h-8.57a8,8,0,0,1-8-8l.19-7a8,8,0,0,1,8-8Z" transform="translate(-5.75 -0.11)"/><path class="cls-6" d="M1155.2,439.9v-4.1l-16.57-23.61v96.54a8,8,0,0,1-8,8,7.61,7.61,0,0,1-5.66-2.38,7.76,7.76,0,0,1-2.34-5.62V390.2h20.69L1163,418.86l20.3-28.66h20.29V508.73a7.61,7.61,0,0,1-2.42,5.67,8.06,8.06,0,0,1-5.76,2.33,8.13,8.13,0,0,1-8-8V412.57l-16.19,22.85v4.48a8,8,0,0,1-16,0Z" transform="translate(-5.75 -0.11)"/><path d="M774.63,7.11c-4.69-.68-23.81-1.37-28.33-1a34.6,34.6,0,0,1-7.69-.68C725.4,3.28,720.36,7.66,727.76,15c4.27,4.3,14.42,21.71,16.53,28.49.7,2.45,2.07,4.49,3.16,4.75.94.23,2.89,2.26,4.33,4.6,2.48,4,4.93,5.74,5.34,4s-7.79-23.13-11.65-30.33c-2.07-3.92-5.27-9.11-7.32-11.31-3.45-4.11-3.42-4.24-.31-3.5,1.76.41,9.08.86,16.19,1,7-.05,16.12.11,19.93.3C795.27,13.44,795.67,10,774.63,7.11Z" transform="translate(-5.75 -0.11)"/><path d="M746.84,17.66c.87,1.78,5.19,5.23,9.64,7.57a89.64,89.64,0,0,1,9.81,6.19c1.09.83,8.18,7.08,15.91,13.63S797.84,59.19,800,62s4.84,4.86,5.85,4.82a1.13,1.13,0,0,1,1.37,1.46c-.23,1,5.49,11.16,12.88,22.77s14.73,25.21,16.68,30.25c6.16,16.18,6.91,17.21,11.91,17.83l4.56.65L848.66,128c-6.32-16.08-10-22.94-18.52-35.11-10-14.25-10.8-15.28-14.9-22.11-4.19-7-17.92-22-23.23-25.51a82.24,82.24,0,0,1-9-7.58C777,32,763.43,23,755.26,19.51c-2.85-1.24-6.3-2.92-7.7-3.68C745.16,14.54,745.16,14.54,746.84,17.66Z" transform="translate(-5.75 -0.11)"/><path d="M741.09,561.51c-1.94,3.42-2.38,31.23-.45,41.63,2.53,14.43,4.76,11.31,4.31-6.09a239.51,239.51,0,0,1,.74-25.88c1.19-10,1-11.45-1-11.45A5.19,5.19,0,0,0,741.09,561.51Z" transform="translate(-5.75 -0.11)"/><path d="M712.83,580.39c.6,2.83,1.94,6.25,3,7.44a29.53,29.53,0,0,1,4,7.58,37.87,37.87,0,0,0,3.72,7.44,179.58,179.58,0,0,1,14.57,22.3c7.29,14.13,11.45,14.87,15.17,2.38,2.08-7,9.37-23,11.15-24.68,2.53-2.23,7.29-10.11,6.39-10.86-.44-.44.3-3.57,1.49-6.84,4.16-10.11.3-8.18-9.07,4.76-8.18,11.3-11.75,17.7-16.65,29.89L745,624.11l-2.23-4.31c-3.42-6.69-11.6-18.44-12.79-18.44-.74,0-1.19-.89-1.19-1.93,0-2.53-10.7-19-14.27-21.86C712.09,575.49,711.94,575.64,712.83,580.39Z" transform="translate(-5.75 -0.11)"/><ellipse class="cls-7" cx="1052.36" cy="454.72" rx="198.64" ry="98.83"/><ellipse class="cls-8" cx="1052.36" cy="244.65" rx="198.64" ry="98.83"/><ellipse class="cls-9" cx="737.4" cy="349.64" rx="98.83" ry="198.64"/><path d="M1056,561.51c-1.93,3.42-2.37,31.23-.44,41.63,2.53,14.43,4.76,11.31,4.31-6.09a239.51,239.51,0,0,1,.74-25.88c1.19-10,1-11.45-1-11.45A5.21,5.21,0,0,0,1056,561.51Z" transform="translate(-5.75 -0.11)"/><path d="M1027.79,580.39c.6,2.83,1.94,6.25,3,7.44a29.53,29.53,0,0,1,4,7.58,37.87,37.87,0,0,0,3.72,7.44,179.58,179.58,0,0,1,14.57,22.3c7.29,14.13,11.45,14.87,15.17,2.38,2.08-7,9.37-23,11.15-24.68,2.53-2.23,7.29-10.11,6.39-10.86-.44-.44.3-3.57,1.49-6.84,4.16-10.11.3-8.18-9.07,4.76-8.18,11.3-11.75,17.7-16.65,29.89l-1.64,4.31-2.23-4.31c-3.42-6.69-11.6-18.44-12.79-18.44-.74,0-1.19-.89-1.19-1.93,0-2.53-10.7-19-14.27-21.86C1027.05,575.49,1026.9,575.64,1027.79,580.39Z" transform="translate(-5.75 -0.11)"/></svg>