<svg id="Layer_1" data-name="Layer 1" xmlns="http://www.w3.org/2000/svg" viewBox="0 0 1854.52 621.51"><defs><style>.cls-1{fill:#0a266a;}.cls-1,.cls-2,.cls-3,.cls-4{stroke:#000;stroke-miterlimit:10;stroke-width:5px;}.cls-2{fill:#bfbfbf;}.cls-3{fill:#8cd9f7;}.cls-4,.cls-5{fill:#fff;}</style></defs><title>logo_juniortim</title><rect class="cls-1" x="1543.77" y="310.75" width="308.25" height="308.25"/><rect class="cls-2" x="927.26" y="310.75" width="308.25" height="308.25"/><rect class="cls-3" x="1543.77" y="2.5" width="308.25" height="308.25"/><rect class="cls-2" x="927.26" y="2.5" width="308.25" height="308.25"/><rect class="cls-4" x="2.5" y="2.5" width="308.25" height="308.25"/><rect class="cls-4" x="619.01" y="2.5" width="308.25" height="308.25"/><rect class="cls-4" x="310.75" y="2.5" width="308.25" height="308.25"/><rect class="cls-3" x="1235.51" y="3" width="308.25" height="308.25"/><rect class="cls-1" x="1235.51" y="310.75" width="308.25" height="308.25"/><path d="M108.4,217.71V180.53a11.74,11.74,0,1,1,23.48,0V218a10.83,10.83,0,0,0,3.49,8.11,11.87,11.87,0,0,0,8.53,3.35h23.76a11.82,11.82,0,0,0,8.46-3.42,11.13,11.13,0,0,0,3.56-8.32V79.2A11.45,11.45,0,0,1,183,70.88a11,11,0,0,1,8.11-3.43,11.33,11.33,0,0,1,8.39,3.78,12,12,0,0,1,3.63,8.52v138a33.59,33.59,0,0,1-10.76,25.16q-10.77,10.35-24.74,10.34H143.9a35.66,35.66,0,0,1-35.5-35.5Z" transform="translate(-0.11 0.38)"/><path d="M405.53,218V79.47A11.64,11.64,0,0,1,409,71a11.17,11.17,0,0,1,8.25-3.57A12,12,0,0,1,429,79.2V218a10.88,10.88,0,0,0,3.49,8,11.41,11.41,0,0,0,8.25,3.42h48.08a11.49,11.49,0,0,0,8.32-3.35,11,11,0,0,0,3.42-8.11V79.47A11.69,11.69,0,0,1,504,71a11.63,11.63,0,0,1,16.63,0,11.73,11.73,0,0,1,3.43,8.52V217.71a34.29,34.29,0,0,1-10.42,25,33.75,33.75,0,0,1-24.81,10.48H440.75A35.3,35.3,0,0,1,405.53,218Z" transform="translate(-0.11 0.38)"/><path d="M832.93,79.47V253.21H801.44L738.16,109v132.5a11.74,11.74,0,1,1-23.48,0v-174h31l63.47,144V79.47a12.17,12.17,0,0,1,12-12A11.2,11.2,0,0,1,829.5,71,11.69,11.69,0,0,1,832.93,79.47Z" transform="translate(-0.11 0.38)"/><path class="cls-5" d="M1035,67.45h95a11.38,11.38,0,0,1,8.18,3.5,11.2,11.2,0,0,1,3.56,8.25,11.68,11.68,0,0,1-3.49,8.45,11.17,11.17,0,0,1-8.25,3.57h-35.5V229.73h35.5a11.74,11.74,0,0,1,0,23.48h-95a11.74,11.74,0,1,1,0-23.48h36.06V91.22H1035a11.2,11.2,0,0,1-8.31-3.5,11.37,11.37,0,0,1-3.43-8.25A11.69,11.69,0,0,1,1026.7,71,11.2,11.2,0,0,1,1035,67.45Z" transform="translate(-0.11 0.38)"/><path class="cls-5" d="M1450.67,160.68V210.3q0,15.8-14.88,29.22t-30.68,13.41h-27.54q-16.08,0-30.75-13.62t-14.68-29V160.68q0-15.37,14.33-29t31.1-13.63h27.54q15.8-.27,30.68,13.14T1450.67,160.68Zm-94.76,1v47.52a12.49,12.49,0,0,0,4.61,10.21l8.8,7.55q2.94,2.51,8.25,2.51h27.26a16,16,0,0,0,10.9-4.33l7.13-6.29a11.2,11.2,0,0,0,4.33-9.37V161.94q0-7-4.33-10.34l-8.25-6.57a14.82,14.82,0,0,0-9.78-3.5h-24.32c-5.31,0-9.42,1.26-12.3,3.78l-8,6.85A11.79,11.79,0,0,0,1355.91,161.66Z" transform="translate(-0.11 0.38)"/><path class="cls-5" d="M1641.58,241.47v-174h83a33.76,33.76,0,0,1,24.81,10.49,34.29,34.29,0,0,1,10.42,25v13.41a34.29,34.29,0,0,1-10.35,25.09,33.78,33.78,0,0,1-24.88,10.42h-14.95l47.95,82.46a13.89,13.89,0,0,1,2.23,7.27,10.84,10.84,0,0,1-3.65,8.18,11.77,11.77,0,0,1-8.27,3.42,11.48,11.48,0,0,1-10.63-6.26l-55-95.07h-17v89.59a11.08,11.08,0,0,1-3.57,8.32,11.78,11.78,0,0,1-8.45,3.42,11.68,11.68,0,0,1-11.74-11.74Zm23.48-113.07h59.54a11.69,11.69,0,0,0,11.74-11.75V103a11.68,11.68,0,0,0-11.74-11.74h-59.54Z" transform="translate(-0.11 0.38)"/><path class="cls-5" d="M1021.61,408.8V377.07h118.53v32a11.26,11.26,0,0,1-3.49,8.32,11.41,11.41,0,0,1-8.25,3.42,11.68,11.68,0,0,1-8.46-3.49,11.2,11.2,0,0,1-3.56-8.25v-8.53h-23.76V550.81a11.23,11.23,0,0,1-3.5,8.32,11.4,11.4,0,0,1-8.24,3.42,11.73,11.73,0,0,1-8.53-3.42,11.22,11.22,0,0,1-3.49-8.32V400.55h-23.77v8.25a11.74,11.74,0,1,1-23.48,0Z" transform="translate(-0.11 0.38)"/><path class="cls-5" d="M1425.53,562.27H1354a11.74,11.74,0,0,1,0-23.48h24V451.15h-23.76a11.19,11.19,0,0,1-8.32-3.49,11.41,11.41,0,0,1-3.42-8.25,11.82,11.82,0,0,1,3.42-8.46,11.11,11.11,0,0,1,8.32-3.56H1390a11.14,11.14,0,0,1,8.32,3.56,11.82,11.82,0,0,1,3.42,8.46v99.38h23.48a11.82,11.82,0,0,1,8.46,3.42,11.58,11.58,0,0,1,.07,16.64A11.41,11.41,0,0,1,1425.53,562.27Zm-47.8-195.82H1390a11.68,11.68,0,0,1,11.74,11.74v10.06a11.8,11.8,0,0,1-3.42,8.46,11.11,11.11,0,0,1-8.32,3.56h-12.58a11.17,11.17,0,0,1-8.46-3.63,11,11,0,0,1-3.28-8.11l.28-10.34a11.68,11.68,0,0,1,11.74-11.74Z" transform="translate(-0.11 0.38)"/><path class="cls-5" d="M1686.88,449.75v-6l-24.32-34.66V550.81a11.69,11.69,0,0,1-11.74,11.74,11.21,11.21,0,0,1-8.32-3.49,11.41,11.41,0,0,1-3.42-8.25v-174h30.36l28.85,42.09,29.81-42.09h29.78v174a11.11,11.11,0,0,1-3.56,8.32,11.82,11.82,0,0,1-8.46,3.42,11.94,11.94,0,0,1-11.74-11.74V409.64l-23.76,33.54v6.57a11.74,11.74,0,0,1-23.48,0Z" transform="translate(-0.11 0.38)"/></svg>