<svg id="Layer_1" data-name="Layer 1" xmlns="http://www.w3.org/2000/svg" viewBox="0 0 1854.52 621.51"><defs><style>.cls-1{fill:#d2d2d2;}.cls-1,.cls-2,.cls-3,.cls-4{stroke:#000;stroke-miterlimit:10;stroke-width:5px;}.cls-2{fill:#fff;}.cls-3{fill:#219692;}.cls-4{fill:#006f6c;}</style></defs><title>logo_juniortimvectorizat</title><rect class="cls-1" x="927.26" y="2.5" width="308.25" height="308.25"/><rect class="cls-2" x="2.5" y="2.5" width="308.25" height="308.25"/><rect class="cls-2" x="619.01" y="2.5" width="308.25" height="308.25"/><rect class="cls-2" x="310.75" y="2.5" width="308.25" height="308.25"/><rect class="cls-3" x="1235.51" y="2.5" width="308.25" height="308.25"/><rect class="cls-3" x="1543.77" y="2.5" width="308.25" height="308.25"/><rect class="cls-1" x="927.26" y="310.75" width="308.25" height="308.25"/><rect class="cls-4" x="1235.51" y="310.75" width="308.25" height="308.25"/><rect class="cls-4" x="1543.77" y="310.75" width="308.25" height="308.25"/><path d="M107.3,216.65V179.47a11.74,11.74,0,1,1,23.48,0v37.46a10.8,10.8,0,0,0,3.5,8.1,11.83,11.83,0,0,0,8.52,3.36h23.76A11.75,11.75,0,0,0,175,225a11.08,11.08,0,0,0,3.57-8.31V78.13a11.41,11.41,0,0,1,3.35-8.31,10.92,10.92,0,0,1,8.11-3.43,11.33,11.33,0,0,1,8.38,3.77,12,12,0,0,1,3.64,8.53v138a33.6,33.6,0,0,1-10.76,25.16q-10.77,10.33-24.75,10.34H142.8a35.66,35.66,0,0,1-35.5-35.5Z" transform="translate(0.99 0.95)"/><path d="M404.43,216.93V78.41a11.65,11.65,0,0,1,3.5-8.45,11.13,11.13,0,0,1,8.24-3.57,11.92,11.92,0,0,1,11.74,11.74v138.8a10.89,10.89,0,0,0,3.5,8,11.37,11.37,0,0,0,8.25,3.43h48.08a11.42,11.42,0,0,0,8.31-3.36,10.88,10.88,0,0,0,3.43-8.1V78.41a11.76,11.76,0,0,1,3.42-8.53,11.66,11.66,0,0,1,16.64,0A11.76,11.76,0,0,1,523,78.41V216.65a34.28,34.28,0,0,1-10.41,25,33.78,33.78,0,0,1-24.81,10.48H439.66a35.32,35.32,0,0,1-35.23-35.22Z" transform="translate(0.99 0.95)"/><path d="M831.83,78.41V252.15H800.34L737.07,107.9V240.41a11.75,11.75,0,1,1-23.49,0v-174h31l63.46,144v-132a12.19,12.19,0,0,1,12-12,11.25,11.25,0,0,1,8.32,3.49A11.76,11.76,0,0,1,831.83,78.41Z" transform="translate(0.99 0.95)"/><path d="M1033.92,66.39h95a11.37,11.37,0,0,1,8.17,3.49,11.2,11.2,0,0,1,3.57,8.25,11.69,11.69,0,0,1-3.5,8.46,11.19,11.19,0,0,1-8.24,3.56h-35.51V228.67H1129a11.74,11.74,0,0,1,0,23.48h-95a11.74,11.74,0,1,1,0-23.48H1070V90.15h-36.06a11.21,11.21,0,0,1-8.32-3.49,11.41,11.41,0,0,1-3.42-8.25,11.76,11.76,0,0,1,3.42-8.53A11.25,11.25,0,0,1,1033.92,66.39Z" transform="translate(0.99 0.95)"/><path d="M1449.58,159.62v49.62q0,15.8-14.89,29.21T1404,251.87h-27.53q-16.08,0-30.75-13.63t-14.68-29V159.62q0-15.37,14.33-29t31.1-13.63H1404q15.79-.28,30.68,13.14T1449.58,159.62Zm-94.77,1v47.52a12.52,12.52,0,0,0,4.61,10.21l8.81,7.54c2,1.68,4.7,2.52,8.25,2.52h27.25a16,16,0,0,0,10.9-4.33l7.13-6.29a11.18,11.18,0,0,0,4.34-9.37V160.88q0-7-4.34-10.35l-8.24-6.56a14.84,14.84,0,0,0-9.79-3.5h-24.32q-8,0-12.3,3.77l-8,6.85A11.81,11.81,0,0,0,1354.81,160.6Z" transform="translate(0.99 0.95)"/><path d="M1640.48,240.41v-174h83a33.77,33.77,0,0,1,24.81,10.48,34.28,34.28,0,0,1,10.41,25v13.42a34.32,34.32,0,0,1-10.34,25.09,33.82,33.82,0,0,1-24.88,10.41h-15l48,82.47a13.8,13.8,0,0,1,2.23,7.27,10.88,10.88,0,0,1-3.64,8.18,11.77,11.77,0,0,1-8.27,3.42,11.49,11.49,0,0,1-10.63-6.26l-55-95.08h-17v89.6a11.11,11.11,0,0,1-3.56,8.32,11.82,11.82,0,0,1-8.46,3.42,11.69,11.69,0,0,1-11.74-11.74ZM1664,127.33h59.55a11.69,11.69,0,0,0,11.74-11.74v-13.7a11.71,11.71,0,0,0-11.74-11.74H1664Z" transform="translate(0.99 0.95)"/><path d="M1023.55,396.79V365.06h118.53v32a11.2,11.2,0,0,1-3.5,8.32,11.4,11.4,0,0,1-8.24,3.42,11.68,11.68,0,0,1-8.46-3.49,11.2,11.2,0,0,1-3.56-8.25v-8.52h-23.76V538.8a11.2,11.2,0,0,1-3.5,8.32,11.4,11.4,0,0,1-8.24,3.42,11.73,11.73,0,0,1-8.53-3.42,11.2,11.2,0,0,1-3.5-8.32V388.55H1047v8.24a11.74,11.74,0,1,1-23.48,0Z" transform="translate(0.99 0.95)"/><path d="M1427.47,550.26h-71.56a11.71,11.71,0,0,1-8.32-20,11.2,11.2,0,0,1,8.32-3.5h24V439.14h-23.76a11.19,11.19,0,0,1-8.32-3.49,11.37,11.37,0,0,1-3.43-8.25,11.75,11.75,0,0,1,3.43-8.45,11.08,11.08,0,0,1,8.32-3.57H1392a11.08,11.08,0,0,1,8.31,3.57,11.75,11.75,0,0,1,3.43,8.45v99.38h23.48a11.83,11.83,0,0,1,8.46,3.43,11.1,11.1,0,0,1,3.56,8.31,11.23,11.23,0,0,1-3.49,8.32A11.41,11.41,0,0,1,1427.47,550.26Zm-47.8-195.82H1392a11.71,11.71,0,0,1,11.74,11.74v10.07a11.75,11.75,0,0,1-3.43,8.45,11.08,11.08,0,0,1-8.31,3.57h-12.58a11.13,11.13,0,0,1-8.46-3.64,11,11,0,0,1-3.28-8.1l.28-10.35a11.69,11.69,0,0,1,11.74-11.74Z" transform="translate(0.99 0.95)"/><path d="M1688.82,437.75v-6l-24.32-34.67V538.8a11.72,11.72,0,0,1-20.06,8.25,11.41,11.41,0,0,1-3.42-8.25v-174h30.36l28.85,42.09L1730,364.78h29.78v174a11.07,11.07,0,0,1-3.56,8.32,11.82,11.82,0,0,1-8.46,3.42,11.94,11.94,0,0,1-11.74-11.74V397.63l-23.76,33.55v6.57a11.74,11.74,0,0,1-23.48,0Z" transform="translate(0.99 0.95)"/></svg>